#!OML:ASF F:\VICON\USERDATA\INSTALL\rory3\rory3.ASF
:FULLY-SPECIFIED
:DEGREES
522
root 0.923469 17.995 -1.06422 2.50189 -28.4779 1.59377
lowerback 1.74601 -0.223901 -3.44534
upperback 0.937688 -0.349963 1.02801
thorax 0.0105276 -0.190499 2.99422
lowerneck -13.6459 1.43909 -10.0577
upperneck 30.713 4.06207 1.79974
head 12.1746 0.790267 2.9661
rclavicle 6.53505e-015 3.97569e-016
rhumerus -11.4353 34.794 -80.2552
rradius 115.269
rwrist 29.9938
rhand -15.0162 12.9004
rfingers 7.12502
rthumb 11.1491 -16.7834
lclavicle 6.53505e-015 3.97569e-016
lhumerus -26.9803 -27.698 94.9296
lradius 89.211
lwrist 8.58124
lhand -23.8579 29.2618
lfingers 7.12502
lthumb 2.61457 59.2255
rfemur -11.7369 2.75041 10.5232
rtibia 23.0832
rfoot -14.9791 -11.7905
rtoes 4.32005
lfemur -5.18527 2.00397 -23.3674
ltibia 15.8688
lfoot -9.5131 3.83518
ltoes -11.8037
523
root 0.920219 17.9959 -1.05309 2.52632 -28.3965 1.56336
lowerback 1.69105 -0.20062 -3.37096
upperback 0.882151 -0.316451 0.975
thorax -0.0190972 -0.171859 2.89705
lowerneck -13.591 1.25667 -10.0187
upperneck 30.4368 3.78293 1.77492
head 12.0736 0.681691 2.90481
rclavicle 3.58309e-014 -1.23246e-014
rhumerus -11.0995 35.6564 -79.9653
rradius 115.666
rwrist 31.394
rhand -13.9128 12.8529
rfingers 7.12502
rthumb 12.2131 -16.7705
lclavicle 3.58309e-014 -1.23246e-014
lhumerus -27.4369 -27.8446 95.1088
lradius 89.3158
lwrist 8.5182
lhand -23.678 29.1887
lfingers 7.12502
lthumb 2.78836 59.1503
rfemur -11.6466 2.63708 10.5438
rtibia 23.0177
rfoot -14.9924 -11.7379
rtoes 4.4365
lfemur -5.16997 1.98501 -23.3503
ltibia 15.8784
lfoot -9.53254 3.80064
ltoes -11.9088
524
root 0.915211 17.9958 -1.04292 2.55494 -28.3708 1.415
lowerback 1.70044 -0.131971 -3.23026
upperback 0.839358 -0.223529 0.960518
thorax -0.0760205 -0.123202 2.80157
lowerneck -13.624 1.06593 -10.0785
upperneck 30.2558 3.49457 1.87757
head 12.0241 0.568994 2.91178
rclavicle -2.54693e-014 -3.18055e-015
rhumerus -10.8767 36.3732 -79.6055
rradius 116.106
rwrist 32.5454
rhand -12.8843 13.2909
rfingers 7.12502
rthumb 13.2047 -16.2709
lclavicle -2.54693e-014 -3.18055e-015
lhumerus -27.919 -28.0251 95.3792
lradius 89.4194
lwrist 8.4192
lhand -23.374 29.1719
lfingers 7.12502
lthumb 3.08195 59.1293
rfemur -11.4947 2.65614 10.7014
rtibia 22.8963
rfoot -14.9843 -11.7925
rtoes 4.36228
lfemur -5.1035 2.00989 -23.2048
ltibia 15.9209
lfoot -9.58023 3.78099
ltoes -12.2061
525
root 0.909858 17.9984 -1.03159 2.61886 -28.3822 1.14891
lowerback 1.69484 -0.0615182 -3.00859
upperback 0.830242 -0.126125 0.99825
thorax -0.0898898 -0.0735853 2.71398
lowerneck -13.5802 0.858953 -10.4089
upperneck 29.9567 3.16399 2.23803
head 11.9043 0.446192 3.05158
rclavicle 2.68111e-014 -3.18055e-015
rhumerus -10.6179 37.1079 -79.2337
rradius 116.438
rwrist 33.5126
rhand -12.0537 13.6398
rfingers 7.12502
rthumb 14.0053 -15.8684
lclavicle 2.68111e-014 -3.18055e-015
lhumerus -28.3866 -28.1726 95.6819
lradius 89.5152
lwrist 8.40415
lhand -22.9144 29.0317
lfingers 7.12502
lthumb 3.52576 58.9823
rfemur -11.321 2.77807 10.9638
rtibia 22.7611
rfoot -15.0467 -11.8518
rtoes 4.9369
lfemur -5.0136 1.93153 -22.9319
ltibia 15.9955
lfoot -9.68914 3.86145
ltoes -11.6119
526
root 0.904298 18.0029 -1.02087 2.66947 -28.3387 1.0208
lowerback 1.68 -0.00927221 -2.94501
upperback 0.779306 -0.0553347 1.02073
thorax -0.138815 -0.0364914 2.70013
lowerneck -13.3353 0.610476 -10.9431
upperneck 29.4591 2.73064 2.82071
head 11.6684 0.292277 3.28669
rclavicle -1.18525e-014 -4.96962e-015
rhumerus -10.4041 37.8035 -78.8638
rradius 116.753
rwrist 34.3758
rhand -11.249 13.7011
rfingers 7.12502
rthumb 14.7806 -15.7518
lclavicle -1.18525e-014 -4.96962e-015
lhumerus -28.8686 -28.3783 96.0073
lradius 89.6081
lwrist 8.93798
lhand -22.6454 29.0796
lfingers 7.12502
lthumb 3.78552 59.0258
rfemur -11.175 2.83076 11.0816
rtibia 22.6244
rfoot -15.0979 -11.9013
rtoes 5.913
lfemur -4.99482 1.8035 -22.7948
ltibia 16.0707
lfoot -9.78976 3.90191
ltoes -10.8404
527
root 0.896137 18.002 -1.01214 2.69987 -28.2753 0.992767
lowerback 1.67746 0.0318576 -3.0739
upperback 0.681051 -0.0028224 1.07209
thorax -0.241663 -0.00731571 2.82469
lowerneck -13.1583 0.369102 -11.227
upperneck 29.0905 2.35842 3.0584
head 11.5113 0.141534 3.36275
rclavicle -3.18055e-015 -2.18663e-015
rhumerus -10.2358 38.5549 -78.4429
rradius 117.041
rwrist 34.8038
rhand -10.5461 13.6758
rfingers 7.12502
rthumb 15.4577 -15.7261
lclavicle -3.18055e-015 -2.18663e-015
lhumerus -29.4091 -28.5761 96.3999
lradius 89.6862
lwrist 9.71197
lhand -22.5484 29.3007
lfingers 7.12502
lthumb 3.87925 59.2451
rfemur -11.0587 2.80401 11.1334
rtibia 22.4908
rfoot -15.0765 -11.9671
rtoes 5.77699
lfemur -5.00725 1.79106 -22.7686
ltibia 16.1258
lfoot -9.81883 3.90848
ltoes -11.3278
528
root 0.887042 17.9997 -0.99958 2.74211 -28.248 0.922916
lowerback 1.59903 0.062308 -3.16776
upperback 0.63575 0.0386148 1.12175
thorax -0.247183 0.0140381 2.92792
lowerneck -13.1308 0.126439 -11.2099
upperneck 28.7835 2.0287 2.96069
head 11.4182 -0.00317568 3.27263
rclavicle -2.62644e-014 -2.5842e-015
rhumerus -10.0695 39.295 -78.1436
rradius 117.228
rwrist 34.9236
rhand -10.1632 13.5671
rfingers 7.12502
rthumb 15.8265 -15.806
lclavicle -2.62644e-014 -2.5842e-015
lhumerus -29.8681 -28.7141 96.6783
lradius 89.7806
lwrist 10.3663
lhand -22.5354 29.3646
lfingers 7.12502
lthumb 3.89171 59.3088
rfemur -10.9513 2.78781 11.2205
rtibia 22.3807
rfoot -15.0545 -12.0171
rtoes 4.808
lfemur -4.97925 1.77101 -22.709
ltibia 16.1722
lfoot -9.89786 3.94783
ltoes -11.6591
529
root 0.881448 17.9997 -0.984769 2.81766 -28.1778 0.857134
lowerback 1.42076 0.0939571 -3.10178
upperback 0.649561 0.0871591 1.0689
thorax -0.136591 0.0363418 2.83556
lowerneck -13.0463 -0.143836 -11.182
upperneck 28.2942 1.61665 2.97212
head 11.2471 -0.162322 3.20612
rclavicle -3.24516e-014 1.39149e-015
rhumerus -9.99963 39.6937 -78.0017
rradius 117.426
rwrist 35.1871
rhand -9.84089 13.5589
rfingers 7.12502
rthumb 16.1369 -15.7894
lclavicle -3.24516e-014 1.39149e-015
lhumerus -30.2707 -28.9094 96.8538
lradius 89.9384
lwrist 10.827
lhand -22.472 29.3938
lfingers 7.12502
lthumb 3.95294 59.3369
rfemur -10.8787 2.68927 11.276
rtibia 22.2901
rfoot -15.0314 -11.978
rtoes 4.30606
lfemur -4.99195 1.57501 -22.6667
ltibia 16.2245
lfoot -9.98793 4.10232
ltoes -11.652
530
root 0.877223 17.9995 -0.975455 2.84524 -28.0724 0.78269
lowerback 1.36853 0.118319 -2.99848
upperback 0.655144 0.122411 0.998275
thorax -0.103862 0.0536362 2.70422
lowerneck -13.0246 -0.347 -11.2984
upperneck 27.9557 1.27478 3.24191
head 11.136 -0.280756 3.27384
rclavicle -3.62782e-014 -2.38542e-015
rhumerus -10.1047 40.0064 -77.9859
rradius 117.614
rwrist 35.4108
rhand -9.74512 13.8577
rfingers 7.12502
rthumb 16.2291 -15.4831
lclavicle -3.62782e-014 -2.38542e-015
lhumerus -30.7235 -29.1061 96.9984
lradius 90.125
lwrist 11.1654
lhand -22.4491 29.4632
lfingers 7.12502
lthumb 3.97511 59.4059
rfemur -10.7785 2.68475 11.355
rtibia 22.2111
rfoot -15.1118 -12.0329
rtoes 4.49026
lfemur -4.96326 1.37839 -22.5938
ltibia 16.2296
lfoot -9.9969 4.21679
ltoes -11.2556
531
root 0.871669 17.9977 -0.96454 2.78821 -28.0071 0.726694
lowerback 1.35356 0.148294 -2.92418
upperback 0.686902 0.163832 0.940797
thorax -0.0654681 0.0735135 2.60273
lowerneck -13.1124 -0.541335 -11.5264
upperneck 27.7457 0.966888 3.59804
head 11.0938 -0.390831 3.40105
rclavicle -7.72775e-015 4.37326e-015
rhumerus -10.2597 40.3846 -77.9899
rradius 117.769
rwrist 35.3487
rhand -9.90434 14.2261
rfingers 7.12502
rthumb 16.0758 -15.1271
lclavicle -7.72775e-015 4.37326e-015
lhumerus -31.123 -29.2464 97.1196
lradius 90.3001
lwrist 11.4305
lhand -22.4299 29.7721
lfingers 7.12502
lthumb 3.99366 59.7144
rfemur -10.5958 2.67762 11.4204
rtibia 22.1376
rfoot -15.1455 -12.0368
rtoes 4.66728
lfemur -4.81805 1.24689 -22.538
ltibia 16.1986
lfoot -9.99231 4.30596
ltoes -10.9233
532
root 0.865028 17.9971 -0.946345 2.77342 -27.9294 0.767617
lowerback 1.16953 0.181162 -2.90572
upperback 0.718285 0.213392 0.844975
thorax 0.0669195 0.095972 2.49365
lowerneck -13.2159 -0.781787 -11.6485
upperneck 27.499 0.605847 3.82897
head 11.0499 -0.527923 3.45617
rclavicle -3.22528e-014 -5.36719e-015
rhumerus -10.3961 40.6346 -77.9755
rradius 117.941
rwrist 35.3382
rhand -9.77818 14.5908
rfingers 7.12502
rthumb 16.1972 -14.7525
lclavicle -3.22528e-014 -5.36719e-015
lhumerus -31.4791 -29.4521 97.2206
lradius 90.471
lwrist 11.5499
lhand -22.1813 30.0837
lfingers 7.12502
lthumb 4.23365 60.0214
rfemur -10.4824 2.53237 11.3657
rtibia 22.0835
rfoot -15.1217 -11.9132
rtoes 4.67062
lfemur -4.72355 1.10172 -22.6061
ltibia 16.1582
lfoot -10.0156 4.40836
ltoes -11.1202
533
root 0.857382 17.9992 -0.931886 2.82405 -27.7917 0.749118
lowerback 1.03101 0.200902 -2.91457
upperback 0.713396 0.243709 0.807698
thorax 0.137697 0.110138 2.4604
lowerneck -13.3537 -1.00136 -11.6389
upperneck 27.3154 0.294691 3.89049
head 11.0357 -0.652041 3.43417
rclavicle -1.07095e-014 -7.7526e-015
rhumerus -10.6552 40.8033 -78.0153
rradius 118.174
rwrist 35.4027
rhand -9.31672 14.7621
rfingers 7.12502
rthumb 16.6415 -14.5445
lclavicle -1.07095e-014 -7.7526e-015
lhumerus -31.894 -29.6352 97.4224
lradius 90.6334
lwrist 11.3804
lhand -22.3781 30.1661
lfingers 7.12502
lthumb 4.04369 60.1075
rfemur -10.4644 2.50207 11.3838
rtibia 22.1757
rfoot -15.3185 -11.992
rtoes 4.57919
lfemur -4.61449 0.85611 -22.589
ltibia 15.9507
lfoot -9.95798 4.47383
ltoes -10.9927
534
root 0.848061 17.9987 -0.923383 2.84304 -27.6599 0.792085
lowerback 0.952606 0.227862 -3.06743
upperback 0.701226 0.280841 0.792132
thorax 0.166242 0.127948 2.53027
lowerneck -13.4697 -1.22428 -11.7001
upperneck 27.1211 -0.0185242 3.99729
head 11.0137 -0.778712 3.43981
rclavicle -4.64783e-014 7.55382e-015
rhumerus -11.0278 40.9626 -78.1142
rradius 118.474
rwrist 35.4123
rhand -8.79463 14.692
rfingers 7.12502
rthumb 17.1441 -14.5716
lclavicle -4.64783e-014 7.55382e-015
lhumerus -32.239 -29.7795 97.6392
lradius 90.7729
lwrist 11.2244
lhand -22.6008 30.2078
lfingers 7.12502
lthumb 3.82865 60.1532
rfemur -10.6024 2.49491 11.3571
rtibia 22.5725
rfoot -15.6855 -11.9652
rtoes 4.94899
lfemur -4.37809 0.768539 -22.6102
ltibia 15.4372
lfoot -9.73595 4.39895
ltoes -10.6258
535
root 0.848293 17.9957 -0.909385 2.86358 -27.4786 1.50292
lowerback 0.500542 0.18746 -3.65101
upperback 0.617639 0.239581 0.594085
thorax 0.335599 0.103824 2.6564
lowerneck -13.4899 -1.44515 -11.9429
upperneck 26.8107 -0.321729 4.20069
head 10.9297 -0.903999 3.50935
rclavicle -5.56473e-014 1.25234e-014
rhumerus -11.367 41.1754 -78.1903
rradius 118.755
rwrist 35.3319
rhand -8.31418 14.6614
rfingers 7.12502
rthumb 17.6065 -14.5614
lclavicle -5.56473e-014 1.25234e-014
lhumerus -32.576 -29.7237 97.8173
lradius 90.9306
lwrist 11.1722
lhand -22.3978 30.1702
lfingers 7.12502
lthumb 4.02462 60.1119
rfemur -10.8472 1.88799 10.5778
rtibia 22.5269
rfoot -15.4838 -11.6742
rtoes 4.66134
lfemur -4.70955 0.661112 -23.3687
ltibia 15.4788
lfoot -9.79575 4.35121
ltoes -10.7201
